<?xml version="1.0" encoding="UTF-8" standalone="no"?>
<!-- Created with Inkscape (http://www.inkscape.org/) -->

<svg
   xmlns:dc="http://purl.org/dc/elements/1.1/"
   xmlns:cc="http://creativecommons.org/ns#"
   xmlns:rdf="http://www.w3.org/1999/02/22-rdf-syntax-ns#"
   xmlns:svg="http://www.w3.org/2000/svg"
   xmlns="http://www.w3.org/2000/svg"
   xmlns:sodipodi="http://sodipodi.sourceforge.net/DTD/sodipodi-0.dtd"
   xmlns:inkscape="http://www.inkscape.org/namespaces/inkscape"
   width="19.581825mm"
   height="19.581825mm"
   viewBox="0 0 19.581825 19.581825"
   version="1.1"
   id="svg91"
   inkscape:version="0.92.5 (2060ec1f9f, 2020-04-08)"
   sodipodi:docname="email.svg">
  <defs
     id="defs85" />
  <sodipodi:namedview
     id="base"
     pagecolor="#ffffff"
     bordercolor="#666666"
     borderopacity="1.0"
     inkscape:pageopacity="0.0"
     inkscape:pageshadow="2"
     inkscape:zoom="5.6"
     inkscape:cx="49.739035"
     inkscape:cy="26.451517"
     inkscape:document-units="mm"
     inkscape:current-layer="layer1"
     showgrid="false"
     fit-margin-top="0"
     fit-margin-left="0"
     fit-margin-right="0"
     fit-margin-bottom="0"
     inkscape:window-width="1920"
     inkscape:window-height="1020"
     inkscape:window-x="0"
     inkscape:window-y="28"
     inkscape:window-maximized="1" />
  <metadata
     id="metadata88">
    <rdf:RDF>
      <cc:Work
         rdf:about="">
        <dc:format>image/svg+xml</dc:format>
        <dc:type
           rdf:resource="http://purl.org/dc/dcmitype/StillImage" />
        <dc:title></dc:title>
      </cc:Work>
    </rdf:RDF>
  </metadata>
  <g
     inkscape:label="Layer 1"
     inkscape:groupmode="layer"
     id="layer1"
     transform="translate(-120.93808,-186.66615)">
    <path
       style="fill:#000000;stroke-width:0.09600387"
       d="m 132.27996,205.87574 c -0.29071,-0.13189 -0.86902,-0.64999 -1.84131,-1.64965 l -1.41749,-1.45737 -1.52933,0.78227 c -1.58471,0.81059 -1.76853,0.85413 -2.09287,0.49573 -0.1499,-0.16564 -0.16001,-0.40047 -0.11046,-2.56763 l 0.0545,-2.38533 -1.95979,-1.95804 c -1.6861,-1.68461 -1.98157,-2.02361 -2.11573,-2.42755 -0.28036,-0.84406 -0.0687,-1.65989 0.59878,-2.30815 0.31965,-0.31044 0.95299,-0.53863 8.13961,-2.93258 4.99393,-1.66355 7.92969,-2.59562 8.17357,-2.59503 1.10076,0.002 2.13855,1.06699 2.15224,2.20716 0.006,0.49644 -5.10849,15.77701 -5.4152,16.17913 -0.32701,0.42873 -1.15857,0.81415 -1.75075,0.81145 -0.25408,-7.7e-4 -0.65269,-0.0887 -0.8858,-0.19441 z m 0.16784,-9.75793 c 2.83988,-3.09521 3.76014,-4.15656 3.76014,-4.33662 0,-0.31924 -0.26098,-0.58991 -0.56691,-0.58792 -0.3131,0.002 -7.16539,4.53442 -7.44661,4.9255 -0.1743,0.2424 -0.19835,0.44738 -0.22835,1.94638 -0.0285,1.42236 -0.01,1.71133 0.12221,1.91314 0.337,0.51434 0.38269,0.47388 4.35952,-3.86048 z"
       id="path77"
       inkscape:connector-curvature="0" />
  </g>
</svg>
