<?xml version="1.0" encoding="UTF-8" standalone="no"?>
<!-- Created with Inkscape (http://www.inkscape.org/) -->

<svg
   xmlns:dc="http://purl.org/dc/elements/1.1/"
   xmlns:cc="http://creativecommons.org/ns#"
   xmlns:rdf="http://www.w3.org/1999/02/22-rdf-syntax-ns#"
   xmlns:svg="http://www.w3.org/2000/svg"
   xmlns="http://www.w3.org/2000/svg"
   xmlns:sodipodi="http://sodipodi.sourceforge.net/DTD/sodipodi-0.dtd"
   xmlns:inkscape="http://www.inkscape.org/namespaces/inkscape"
   width="19.581825mm"
   height="19.581825mm"
   viewBox="0 0 19.581825 19.581825"
   version="1.1"
   id="svg91"
   inkscape:version="0.92.5 (2060ec1f9f, 2020-04-08)"
   sodipodi:docname="faq.svg">
  <defs
     id="defs85" />
  <sodipodi:namedview
     id="base"
     pagecolor="#ffffff"
     bordercolor="#666666"
     borderopacity="1.0"
     inkscape:pageopacity="0.0"
     inkscape:pageshadow="2"
     inkscape:zoom="5.6"
     inkscape:cx="50.881197"
     inkscape:cy="26.453275"
     inkscape:document-units="mm"
     inkscape:current-layer="layer1"
     showgrid="false"
     fit-margin-top="0"
     fit-margin-left="0"
     fit-margin-right="0"
     fit-margin-bottom="0"
     inkscape:window-width="1920"
     inkscape:window-height="1020"
     inkscape:window-x="0"
     inkscape:window-y="28"
     inkscape:window-maximized="1" />
  <metadata
     id="metadata88">
    <rdf:RDF>
      <cc:Work
         rdf:about="">
        <dc:format>image/svg+xml</dc:format>
        <dc:type
           rdf:resource="http://purl.org/dc/dcmitype/StillImage" />
        <dc:title></dc:title>
      </cc:Work>
    </rdf:RDF>
  </metadata>
  <g
     inkscape:label="Layer 1"
     inkscape:groupmode="layer"
     id="layer1"
     transform="translate(-120.93808,-186.66615)">
    <path
       style="fill:#000000;stroke-width:0.09704138"
       d="m 129.65167,206.14231 c -1.41718,-0.26099 -1.91241,-0.392 -2.62012,-0.69312 -1.58263,-0.67337 -2.81401,-1.5942 -3.83007,-2.86411 -1.76026,-2.20006 -2.48376,-4.88805 -2.04357,-7.59248 0.53092,-3.26176 2.70621,-6.10923 5.61156,-7.34557 1.37891,-0.58677 2.39155,-0.78908 3.94964,-0.78908 1.2162,0 1.53878,0.035 2.37752,0.25839 1.98915,0.52966 3.90973,1.75427 5.11627,3.26225 2.91602,3.64458 2.9228,8.58327 0.0167,12.21537 -1.33278,1.66577 -3.3877,2.94151 -5.42414,3.36742 -0.76149,0.15925 -2.67536,0.26906 -3.15386,0.18093 z m 1.72336,-3.2403 c 1.15461,-0.70397 0.80161,-2.42331 -0.53091,-2.58594 -0.74954,-0.0915 -1.48393,0.58312 -1.48322,1.36249 7.6e-4,1.05723 1.146,1.75275 2.01413,1.22345 z m -0.21712,-3.74413 c 0.36148,-0.17153 0.62867,-0.63907 0.62867,-1.10013 0,-0.27252 0.0545,-0.32757 0.55798,-0.5643 2.04079,-0.95945 2.78003,-3.56621 1.55649,-5.48864 -1.06522,-1.67369 -3.42174,-2.20516 -5.18801,-1.17003 -0.92346,0.54118 -1.69113,1.81336 -1.76219,2.92035 -0.0455,0.70861 0.10209,1.01273 0.60893,1.25441 0.67019,0.31958 1.33844,-0.15286 1.441,-1.01876 0.11987,-1.01217 0.76131,-1.61505 1.71833,-1.61505 1.00551,0 1.69499,0.68949 1.69499,1.69498 0,0.93819 -0.58983,1.58497 -1.56108,1.7118 -0.96419,0.12592 -1.20046,0.46399 -1.20099,1.7185 -3.7e-4,1.007 0.1556,1.42779 0.61303,1.65339 0.38915,0.1919 0.4949,0.19231 0.89285,0.003 z"
       id="path109"
       inkscape:connector-curvature="0" />
  </g>
</svg>
